<svg xmlns="http://www.w3.org/2000/svg" xmlns:xlink="http://www.w3.org/1999/xlink" xml:space="preserve" version="1.1" style="shape-rendering:geometricPrecision;text-rendering:geometricPrecision;image-rendering:optimizeQuality;" viewBox="0 0 847 1058.75" x="0px" y="0px" fill-rule="evenodd" clip-rule="evenodd"><defs><style type="text/css">
   
    .fil0 {fill:black}
   
  </style></defs><g><path class="fil0" d="M149 204c18,-18 37,-37 55,-55 5,-5 13,-5 18,0 67,67 134,134 201,201 67,-67 135,-134 202,-201 5,-5 13,-5 18,0 18,18 36,37 55,55 5,5 5,13 0,18 -67,67 -134,134 -201,201 67,67 134,135 201,202 5,5 5,13 0,18 -19,18 -37,36 -55,55 -5,5 -13,5 -18,0 -67,-67 -135,-134 -202,-201 -67,67 -134,134 -201,201 -5,5 -13,5 -18,0 -18,-19 -37,-37 -55,-55 -5,-5 -5,-13 0,-18 67,-67 134,-135 201,-202 -67,-67 -134,-134 -201,-201 -5,-5 -5,-13 0,-18z"/></g><text x="0" y="862" fill="#000000" font-size="5px" font-weight="bold" font-family="'Helvetica Neue', Helvetica, Arial-Unicode, Arial, Sans-serif">Created by Bismillah</text><text x="0" y="867" fill="#000000" font-size="5px" font-weight="bold" font-family="'Helvetica Neue', Helvetica, Arial-Unicode, Arial, Sans-serif">from the Noun Project</text></svg>