<svg
  xmlns="http://www.w3.org/2000/svg"
  version="1.1" x="0px" y="0px"
  viewBox="0 0 100 125"
  style="enable-background:new 0 0 100 100;">
      <g>
        <g>
          <path d="M5273.1,2400.1v-2c0-2.8-5-4-9.7-4s-9.7,1.3-9.7,4v2c0,1.8,0.7,3.6,2,4.9l5,4.9c0.3,0.3,0.4,0.6,0.4,1v6.4     c0,0.4,0.2,0.7,0.6,0.8l2.9,0.9c0.5,0.1,1-0.2,1-0.8v-7.2c0-0.4,0.2-0.7,0.4-1l5.1-5C5272.4,2403.7,5273.1,2401.9,5273.1,2400.1z      M5263.4,2400c-4.8,0-7.4-1.3-7.5-1.8v0c0.1-0.5,2.7-1.8,7.5-1.8c4.8,0,7.3,1.3,7.5,1.8C5270.7,2398.7,5268.2,2400,5263.4,2400z"/>
          <path d="M5268.4,2410.3c-0.6,0-1,0.4-1,1c0,0.6,0.4,1,1,1h4.3c0.6,0,1-0.4,1-1c0-0.6-0.4-1-1-1H5268.4z"/>
          <path d="M5272.7,2413.7h-4.3c-0.6,0-1,0.4-1,1c0,0.6,0.4,1,1,1h4.3c0.6,0,1-0.4,1-1C5273.7,2414.1,5273.3,2413.7,5272.7,2413.7z"/>
          <path d="M5272.7,2417h-4.3c-0.6,0-1,0.4-1,1c0,0.6,0.4,1,1,1h4.3c0.6,0,1-0.4,1-1C5273.7,2417.5,5273.3,2417,5272.7,2417z"/>
        </g>
      <g>
        <path d="M79.5,78.8c0,5-4,9-9,9H21.1c-4.9,0-9-4-9-9V29.5c0-4.9,4-9,9-9h28.5l9.7-9.6H21.1c-10.2,0-18.6,8.3-18.6,18.6v49.3     c0,10.3,8.4,18.7,18.6,18.7h49.3c10.2,0,18.6-8.4,18.6-18.7V40.7l-9.6,9.6V78.8z"/>
        <path d="M95.4,10.5l-5.9-5.9c-2.8-2.8-7.4-2.8-10.2,0L44.3,39.6l16.2,16.1l34.9-34.9C98.2,17.9,98.2,13.4,95.4,10.5z"/>
        <path d="M33,71l13.2-4.4c2.7-0.9,5.1-2.4,7.2-4.2L37.6,46.5c-1.8,2.2-3.3,4.5-4.2,7.2L29,66.9C28.2,69.4,30.5,71.8,33,71z"/>
      </g>
    </g>
</svg>
