<svg
xmlns="http://www.w3.org/2000/svg"
viewBox="0 0 6.3499999 7.93750025" version="1.1" x="0px" y="0px">
<g transform="translate(0,-290.64999)"><path style="color:#000000;font-style:normal;font-variant:normal;font-weight:normal;font-stretch:normal;font-size:medium;line-height:normal;font-family:sans-serif;font-variant-ligatures:normal;font-variant-position:normal;font-variant-caps:normal;font-variant-numeric:normal;font-variant-alternates:normal;font-feature-settings:normal;text-indent:0;text-align:start;text-decoration:none;text-decoration-line:none;text-decoration-style:solid;text-decoration-color:#000000;letter-spacing:normal;word-spacing:normal;text-transform:none;writing-mode:lr-tb;direction:ltr;text-orientation:mixed;dominant-baseline:auto;baseline-shift:baseline;text-anchor:start;white-space:normal;shape-padding:0;clip-rule:nonzero;display:inline;overflow:visible;visibility:visible;opacity:1;isolation:auto;mix-blend-mode:normal;color-interpolation:sRGB;color-interpolation-filters:linearRGB;solid-color:#000000;solid-opacity:1;vector-effect:none;fill:#000000;fill-opacity:1;fill-rule:evenodd;stroke:none;stroke-width:2;stroke-linecap:round;stroke-linejoin:round;stroke-miterlimit:4;stroke-dasharray:none;stroke-dashoffset:0;stroke-opacity:1;paint-order:stroke fill markers;color-rendering:auto;image-rendering:auto;shape-rendering:auto;text-rendering:auto;enable-background:accumulate" d="M 8.0019531,0.99804688 C 7.4466363,0.99592945 6.9959295,1.4466363 6.9980469,2.0019531 V 5 H 2 C 0.69514692,5.0281756 0.69514692,6.9718244 2,7 h 0.9960938 v 15 c -0.00213,0.556084 0.44978,1.007112 1.0058593,1.003906 H 19.998047 C 20.553364,23.006023 21.00407,22.555317 21.001953,22 V 7 h 0.996094 c 1.362434,0.029419 1.362434,-2.0294189 0,-2 H 17 V 2.0019531 C 17.002117,1.4466364 16.551411,0.99592956 15.996094,0.99804688 Z M 8.9980469,2.9980469 H 15 V 5 H 8.9980469 Z M 4.9980469,7 H 19.001953 V 21.003906 H 4.9980469 Z m 4.9902343,3.986328 c -0.5530436,0.0054 -0.9966863,0.458686 -0.9902343,1.011719 v 4 c -0.030231,1.363228 2.0302301,1.363228 2.0000001,0 v -4 c 0.0065,-0.560678 -0.449076,-1.017176 -1.0097658,-1.011719 z m 3.9921878,0 C 13.431259,10.997072 12.993513,11.44877 13,11.998047 v 4 c -0.03025,1.363243 2.030246,1.363243 2,0 v -4 c 0.0067,-0.564568 -0.455031,-1.022728 -1.019531,-1.011719 z" transform="matrix(0.26458334,0,0,0.26458334,0,290.64999)"/></g><text x="0" y="21.3500002" fill="#000000" font-size="5px" font-weight="bold" font-family="'Helvetica Neue', Helvetica, Arial-Unicode, Arial, Sans-serif">Created by Gajah Mada Studio</text><text x="0" y="26.3500002" fill="#000000" font-size="5px" font-weight="bold" font-family="'Helvetica Neue', Helvetica, Arial-Unicode, Arial, Sans-serif">from the Noun Project</text></svg>
